<svg
  xmlns="http://www.w3.org/2000/svg"
  width="24" height="24" viewBox="0 0 24 24"
  fill="none" stroke="currentColor" stroke-width="1.5"
  stroke-linecap="round" stroke-linejoin="round"
  role="img" aria-labelledby="title desc"
>
  <title id="title">منصة لدعم الأطفال المنقطعين عن الدراسة</title>
  <desc id="desc">كتاب مفتوح مع طفل وقلب يرمز إلى الدعم والتعليم</desc>

  <!-- Open book -->
  <path d="M3 7.5v8.5a1.5 1.5 0 0 0 1.5 1.5c2.6 0 4.7.8 6.6 1.8V9.2c-1.9-1-4-1.7-6.6-1.7A1.5 1.5 0 0 1 3 6v1.5z"/>
  <path d="M21 7.5v8.5a1.5 1.5 0 0 1-1.5 1.5c-2.6 0-4.7.8-6.6 1.8V9.2c1.9-1 4-1.7 6.6-1.7A1.5 1.5 0 0 0 21 6v1.5z"/>

  <!-- Child -->
  <circle cx="12" cy="8.2" r="1.4"/>
  <path d="M8 9.6c1.5-.9 3-.9 4-.9s2.5 0 4 .9"/>
  <path d="M12 9.6v3.1m-2.3 2.9 2.3-2.9 2.3 2.9"/>

  <!-- Heart (care) -->
  <path d="M12 3.7c-.6-.9-2-.9-2.6 0-.4.6-.3 1.4.2 1.9l2.4 2.2 2.4-2.2c.5-.5.6-1.3.2-1.9-.6-.9-2-.9-2.6 0z"/>

  <!-- Baseline -->
  <path d="M2.5 18.8H21.5" opacity=".25"/>
</svg>
